<mxfile host="app.diagrams.net" agent="Mozilla/5.0 (Windows NT 10.0; Win64; x64) AppleWebKit/537.36 (KHTML, like Gecko) Chrome/136.0.0.0 Safari/537.36" version="27.0.6">
  <diagram name="Page-1" id="c9CXkg-E2NIcIehNP0WM">
    <mxGraphModel dx="2316" dy="1276" grid="1" gridSize="10" guides="1" tooltips="1" connect="1" arrows="1" fold="1" page="1" pageScale="1" pageWidth="1751" pageHeight="700" math="0" shadow="0">
      <root>
        <mxCell id="0" />
        <mxCell id="1" parent="0" />
        <mxCell id="vypfOGd2PMB8AFC3XnRP-30" value="" style="rounded=0;whiteSpace=wrap;html=1;fillColor=#fff2cc;strokeColor=#d6b656;" parent="1" vertex="1">
          <mxGeometry x="45" y="121" width="1585" height="465" as="geometry" />
        </mxCell>
        <mxCell id="vypfOGd2PMB8AFC3XnRP-21" value="" style="rounded=0;whiteSpace=wrap;html=1;" parent="1" vertex="1">
          <mxGeometry x="1120" y="220" width="370" height="260" as="geometry" />
        </mxCell>
        <mxCell id="vypfOGd2PMB8AFC3XnRP-8" value="" style="group;flipH=1;flipV=1;" parent="1" vertex="1" connectable="0">
          <mxGeometry x="1117" y="275" width="170" height="150" as="geometry" />
        </mxCell>
        <mxCell id="vypfOGd2PMB8AFC3XnRP-2" value="" style="whiteSpace=wrap;html=1;aspect=fixed;" parent="vypfOGd2PMB8AFC3XnRP-8" vertex="1">
          <mxGeometry x="20" width="150" height="150" as="geometry" />
        </mxCell>
        <mxCell id="vypfOGd2PMB8AFC3XnRP-4" value="Model(Task)" style="text;html=1;align=center;verticalAlign=middle;resizable=0;points=[];autosize=1;strokeColor=none;fillColor=none;" parent="vypfOGd2PMB8AFC3XnRP-8" vertex="1">
          <mxGeometry x="48.97826086956522" y="110" width="90" height="30" as="geometry" />
        </mxCell>
        <mxCell id="vypfOGd2PMB8AFC3XnRP-5" value="TaskDTO" style="text;html=1;align=center;verticalAlign=middle;resizable=0;points=[];autosize=1;strokeColor=none;fillColor=none;" parent="vypfOGd2PMB8AFC3XnRP-8" vertex="1">
          <mxGeometry x="52.81884057971014" y="82.5" width="70" height="30" as="geometry" />
        </mxCell>
        <mxCell id="vypfOGd2PMB8AFC3XnRP-6" value="TaskResponse&lt;div&gt;&lt;br&gt;&lt;/div&gt;" style="text;html=1;align=center;verticalAlign=middle;resizable=0;points=[];autosize=1;strokeColor=none;fillColor=none;" parent="vypfOGd2PMB8AFC3XnRP-8" vertex="1">
          <mxGeometry x="43.97797101449276" y="10" width="100" height="40" as="geometry" />
        </mxCell>
        <mxCell id="vypfOGd2PMB8AFC3XnRP-7" value="TaskReques" style="text;html=1;align=center;verticalAlign=middle;resizable=0;points=[];autosize=1;strokeColor=none;fillColor=none;" parent="vypfOGd2PMB8AFC3XnRP-8" vertex="1">
          <mxGeometry x="43.97826086956522" y="50" width="90" height="30" as="geometry" />
        </mxCell>
        <mxCell id="vypfOGd2PMB8AFC3XnRP-9" value="Repository" style="rounded=1;whiteSpace=wrap;html=1;" parent="1" vertex="1">
          <mxGeometry x="890" y="310" width="120" height="60" as="geometry" />
        </mxCell>
        <mxCell id="vypfOGd2PMB8AFC3XnRP-1" value="" style="shape=cylinder3;whiteSpace=wrap;html=1;boundedLbl=1;backgroundOutline=1;size=15;container=1;" parent="1" vertex="1">
          <mxGeometry x="1380" y="275" width="89.51" height="130" as="geometry" />
        </mxCell>
        <mxCell id="vypfOGd2PMB8AFC3XnRP-11" value="Data" style="text;html=1;align=center;verticalAlign=middle;resizable=0;points=[];autosize=1;strokeColor=none;fillColor=none;container=1;" parent="1" vertex="1">
          <mxGeometry x="1405" y="420" width="50" height="30" as="geometry" />
        </mxCell>
        <mxCell id="vypfOGd2PMB8AFC3XnRP-12" value="Controller" style="rounded=1;whiteSpace=wrap;html=1;" parent="1" vertex="1">
          <mxGeometry x="450" y="308" width="120" height="60" as="geometry" />
        </mxCell>
        <mxCell id="vypfOGd2PMB8AFC3XnRP-13" value="Services Layer" style="rounded=1;whiteSpace=wrap;html=1;" parent="1" vertex="1">
          <mxGeometry x="670" y="310" width="120" height="60" as="geometry" />
        </mxCell>
        <mxCell id="vypfOGd2PMB8AFC3XnRP-14" value="" style="endArrow=classic;html=1;rounded=0;" parent="1" edge="1">
          <mxGeometry width="50" height="50" relative="1" as="geometry">
            <mxPoint x="1030" y="330" as="sourcePoint" />
            <mxPoint x="1110" y="330" as="targetPoint" />
          </mxGeometry>
        </mxCell>
        <mxCell id="vypfOGd2PMB8AFC3XnRP-15" value="" style="endArrow=classic;html=1;rounded=0;" parent="1" edge="1">
          <mxGeometry width="50" height="50" relative="1" as="geometry">
            <mxPoint x="1111" y="348" as="sourcePoint" />
            <mxPoint x="1031" y="348" as="targetPoint" />
          </mxGeometry>
        </mxCell>
        <mxCell id="vypfOGd2PMB8AFC3XnRP-16" value="" style="endArrow=classic;html=1;rounded=0;" parent="1" edge="1">
          <mxGeometry width="50" height="50" relative="1" as="geometry">
            <mxPoint x="801" y="330" as="sourcePoint" />
            <mxPoint x="881" y="330" as="targetPoint" />
          </mxGeometry>
        </mxCell>
        <mxCell id="vypfOGd2PMB8AFC3XnRP-17" value="" style="endArrow=classic;html=1;rounded=0;" parent="1" edge="1">
          <mxGeometry width="50" height="50" relative="1" as="geometry">
            <mxPoint x="882" y="348" as="sourcePoint" />
            <mxPoint x="802" y="348" as="targetPoint" />
          </mxGeometry>
        </mxCell>
        <mxCell id="vypfOGd2PMB8AFC3XnRP-18" value="" style="endArrow=classic;html=1;rounded=0;" parent="1" edge="1">
          <mxGeometry width="50" height="50" relative="1" as="geometry">
            <mxPoint x="583" y="330" as="sourcePoint" />
            <mxPoint x="663" y="330" as="targetPoint" />
          </mxGeometry>
        </mxCell>
        <mxCell id="vypfOGd2PMB8AFC3XnRP-19" value="" style="endArrow=classic;html=1;rounded=0;" parent="1" edge="1">
          <mxGeometry width="50" height="50" relative="1" as="geometry">
            <mxPoint x="664" y="348" as="sourcePoint" />
            <mxPoint x="584" y="348" as="targetPoint" />
          </mxGeometry>
        </mxCell>
        <mxCell id="vypfOGd2PMB8AFC3XnRP-20" value="" style="endArrow=classic;startArrow=classic;html=1;rounded=0;entryX=-0.08;entryY=0.495;entryDx=0;entryDy=0;entryPerimeter=0;" parent="1" target="vypfOGd2PMB8AFC3XnRP-1" edge="1">
          <mxGeometry width="50" height="50" relative="1" as="geometry">
            <mxPoint x="1300" y="340" as="sourcePoint" />
            <mxPoint x="1180" y="350" as="targetPoint" />
          </mxGeometry>
        </mxCell>
        <mxCell id="vypfOGd2PMB8AFC3XnRP-22" value="" style="shape=flexArrow;endArrow=classic;startArrow=classic;html=1;rounded=0;" parent="1" edge="1">
          <mxGeometry width="100" height="100" relative="1" as="geometry">
            <mxPoint x="370" y="340" as="sourcePoint" />
            <mxPoint x="440" y="340" as="targetPoint" />
          </mxGeometry>
        </mxCell>
        <mxCell id="vypfOGd2PMB8AFC3XnRP-23" value="Client" style="shape=umlActor;verticalLabelPosition=bottom;verticalAlign=top;html=1;outlineConnect=0;" parent="1" vertex="1">
          <mxGeometry x="200" y="318" width="30" height="60" as="geometry" />
        </mxCell>
        <mxCell id="vypfOGd2PMB8AFC3XnRP-24" value="" style="sketch=0;html=1;aspect=fixed;strokeColor=none;shadow=0;fillColor=#3B8DF1;verticalAlign=top;labelPosition=center;verticalLabelPosition=bottom;shape=mxgraph.gcp2.cloud_computer" parent="1" vertex="1">
          <mxGeometry x="260" y="304" width="100" height="88" as="geometry" />
        </mxCell>
        <mxCell id="vypfOGd2PMB8AFC3XnRP-25" value="&lt;h1 style=&quot;margin-top: 0px;&quot;&gt;Layered Architecture&lt;/h1&gt;&lt;p&gt;&lt;br&gt;&lt;/p&gt;" style="text;html=1;whiteSpace=wrap;overflow=hidden;rounded=0;" parent="1" vertex="1">
          <mxGeometry x="700" y="199" width="260" height="50" as="geometry" />
        </mxCell>
        <mxCell id="vypfOGd2PMB8AFC3XnRP-26" value="HTTP handling,&amp;nbsp;&lt;span style=&quot;background-color: transparent; color: light-dark(rgb(0, 0, 0), rgb(255, 255, 255));&quot;&gt;request/response&lt;/span&gt;&lt;div&gt;&lt;span style=&quot;background-color: transparent; color: light-dark(rgb(0, 0, 0), rgb(255, 255, 255));&quot;&gt;&amp;nbsp;based on client&amp;nbsp; interaction&lt;/span&gt;&lt;/div&gt;" style="text;html=1;align=center;verticalAlign=middle;resizable=0;points=[];autosize=1;strokeColor=none;fillColor=none;" parent="1" vertex="1">
          <mxGeometry x="411" y="390" width="200" height="40" as="geometry" />
        </mxCell>
        <mxCell id="vypfOGd2PMB8AFC3XnRP-27" value="Handling Business logic, validation" style="text;html=1;align=center;verticalAlign=middle;resizable=0;points=[];autosize=1;strokeColor=none;fillColor=none;" parent="1" vertex="1">
          <mxGeometry x="625" y="392" width="210" height="30" as="geometry" />
        </mxCell>
        <mxCell id="vypfOGd2PMB8AFC3XnRP-28" value=" Data access and&lt;div&gt;persistence operations (CRUD)&lt;/div&gt;" style="text;html=1;align=center;verticalAlign=middle;resizable=0;points=[];autosize=1;strokeColor=none;fillColor=none;" parent="1" vertex="1">
          <mxGeometry x="845" y="378" width="190" height="40" as="geometry" />
        </mxCell>
        <mxCell id="vypfOGd2PMB8AFC3XnRP-29" value="Model" style="text;html=1;align=center;verticalAlign=middle;resizable=0;points=[];autosize=1;strokeColor=none;fillColor=none;" parent="1" vertex="1">
          <mxGeometry x="1172" y="233" width="60" height="30" as="geometry" />
        </mxCell>
      </root>
    </mxGraphModel>
  </diagram>
</mxfile>
